# xmcd CD database file
# Copyright (C) 1993-1999 CDDB, Inc.
#
# Track frame offsets:
#	150
#	13918
#	24671
#	44548
#	59358
#	76482
#	86788
#	97856
#	110176
#	124633
#	139267
#	154306
#	167858
#	181937
#	197329
#	209320
#	218723
#	232483
#
# Disc length: 3341
#
# Revision: 1
# Processed by: cddbd v1.5.1PL2 Copyright (c) Steve Scherf et al.
# Submitted via: CoolCD_Studio 1.4
#
DISCID=060d0b12
DTITLE=Martina McBride - Timeless
DYEAR=2005
DGENRE=
TTITLE0=You Win Again
TTITLE1=I'll Be There
TTITLE2=I Can't Stop Loving You
TTITLE3=(I Never Promised You A) Rose Garden
TTITLE4=Today I Started Loving You Again
TTITLE5=You Ain't Woman Enough
TTITLE6=Once A Day
TTITLE7=Pick Me Up On Your Way Down
TTITLE8=I Don't Hurt Anymore
TTITLE9=True Love Ways
TTITLE10=Til' I Can make It On My Own
TTITLE11=I Still Miss Someone
TTITLE12=Heartaches By The Number
TTITLE13=Satin Sheets
TTITLE14=Thanks A Lot
TTITLE15=Love's Gonna Live Here
TTITLE16=Make The World Go Away
TTITLE17=Help Me Make It Through The Night
EXTD=
EXTT0=
EXTT1=
EXTT2=
EXTT3=
EXTT4=
EXTT5=
EXTT6=
EXTT7=
EXTT8=
EXTT9=
EXTT10=
EXTT11=
EXTT12=
EXTT13=
EXTT14=
EXTT15=
EXTT16=
EXTT17=
PLAYORDER=
